# Blender v3.0.1 OBJ File: ''
# www.blender.org
mtllib base.mtl
o Base
v 1.930939 0.055761 -0.200000
v 2.524799 0.421247 -0.200000
v -0.303858 0.413182 -0.200000
v 1.751548 0.019997 -0.200000
v 2.510304 0.334449 -0.200000
v 2.428904 0.216442 -0.200000
v 2.289728 0.123412 -0.200000
v 2.151198 0.079006 -0.200000
v 1.562331 0.422166 -0.200000
v 1.614242 -0.022145 -0.200000
v 1.489672 -0.080706 -0.200000
v 1.260185 -0.116311 -0.200000
v 0.332844 -0.103538 -0.200000
v -0.064535 -0.142942 -0.200000
v -1.126417 -0.474859 -0.200000
v -0.818878 -0.374370 -0.200000
v -1.493841 -0.178213 -0.200000
v -0.915595 -0.106320 -0.200000
v -0.435829 -0.233035 -0.200000
v -1.089135 -0.172590 -0.200000
v -1.276356 -0.200075 -0.200000
v -1.407508 -0.197068 -0.200000
v -1.912912 -0.150676 -0.200000
v -1.929796 -0.245606 -0.200000
v -1.922558 -0.310000 -0.200000
v -1.897892 -0.367337 -0.200000
v -1.856745 -0.415414 -0.200000
v -1.800699 -0.452385 -0.200000
v -1.534431 -0.109531 -0.200000
v -1.625996 -0.043473 -0.200000
v -1.727644 -0.016539 -0.200000
v -1.844184 -0.031991 -0.200000
v -1.731907 -0.476827 -0.200000
v 1.930939 0.055761 0.200000
v 2.524799 0.421247 0.200000
v -0.302618 0.413185 0.200000
v 1.653736 -0.006153 0.200000
v 2.505778 0.323256 0.200000
v 2.418804 0.206958 0.200000
v 2.275475 0.116984 0.200000
v 2.151198 0.079006 0.200000
v 1.562332 0.422166 0.200000
v 1.489672 -0.080706 0.200000
v 1.260185 -0.116311 0.200000
v 0.332844 -0.103538 0.200000
v -0.064535 -0.142942 0.200000
v -1.126417 -0.474859 0.200000
v -0.818878 -0.374370 0.200000
v -1.493841 -0.178213 0.200000
v -0.435829 -0.233035 0.200000
v -0.916025 -0.105188 0.200000
v -1.073968 -0.168594 0.200000
v -1.259691 -0.199090 0.200000
v -1.407508 -0.197068 0.200000
v -1.908210 -0.138068 0.200000
v -1.929796 -0.245606 0.200000
v -1.922558 -0.310000 0.200000
v -1.897892 -0.367337 0.200000
v -1.856745 -0.415414 0.200000
v -1.800699 -0.452385 0.200000
v -1.528795 -0.115989 0.200000
v -1.617507 -0.047616 0.200000
v -1.718382 -0.017394 0.200000
v -1.840835 -0.029871 0.200000
v -1.731907 -0.476827 0.200000
vt 0.000000 0.000000
vt 0.000000 0.000000
vt 0.000000 0.000000
vt 0.000000 0.000000
vt 0.000000 0.000000
vt 0.000000 0.000000
vt 0.000000 0.000000
vt 0.000000 0.000000
vt 0.000000 0.000000
vt 0.000000 0.000000
vt 0.000000 0.000000
vt 0.000000 0.000000
vt 0.000000 0.000000
vt 0.000000 0.000000
vt 0.000000 0.000000
vt 0.000000 0.000000
vt 0.000000 0.000000
vt 0.000000 0.000000
vt 0.000000 0.000000
vt 0.000000 0.000000
vt 0.000000 0.000000
vt 0.000000 0.000000
vt 0.000000 0.000000
vt 0.000000 0.000000
vt 0.000000 0.000000
vt 0.000000 0.000000
vt 0.000000 0.000000
vt 0.000000 0.000000
vt 0.000000 0.000000
vt 0.000000 0.000000
vt 0.000000 0.000000
vt 0.000000 0.000000
vt 0.000000 0.000000
vt 0.000000 0.000000
vt 0.000000 0.000000
vt 0.000000 0.000000
vt 0.000000 0.000000
vt 0.000000 0.000000
vt 0.000000 0.000000
vt 0.000000 0.000000
vt 0.000000 0.000000
vt 0.000000 0.000000
vt 0.000000 0.000000
vt 0.000000 0.000000
vt 0.000000 0.000000
vt 0.000000 0.000000
vt 0.000000 0.000000
vt 0.000000 0.000000
vt 0.000000 0.000000
vt 0.000000 0.000000
vt 0.000000 0.000000
vt 0.000000 0.000000
vt 0.000000 0.000000
vt 0.000000 0.000000
vt 0.000000 0.000000
vt 0.000000 0.000000
vt 0.000000 0.000000
vt 0.000000 0.000000
vt 0.000000 0.000000
vt 0.000000 0.000000
vt 0.000000 0.000000
vt 0.000000 0.000000
vt 0.000000 0.000000
vt 0.000000 0.000000
vt 0.000000 0.000000
vn 0.0000 0.0000 -1.0000
vn -0.0000 0.0000 1.0000
vn -0.6473 0.7622 0.0020
vn 0.2934 -0.9559 0.0093
vn 0.2923 -0.9563 -0.0000
vn 0.2180 -0.9759 -0.0105
vn -0.1014 0.9948 0.0045
vn -0.3725 0.9280 -0.0030
vn 0.1050 -0.9945 -0.0000
vn -0.0048 1.0000 -0.0000
vn -0.1620 0.9868 -0.0037
vn 0.8719 0.4898 0.0000
vn 0.0137 0.9999 -0.0030
vn 0.3106 -0.9505 0.0000
vn 0.3462 -0.9382 -0.0000
vn 0.2358 -0.9718 0.0000
vn 0.0010 1.0000 -0.0000
vn 0.2134 0.9770 0.0000
vn -0.8489 0.5286 0.0043
vn -0.9804 0.1968 0.0053
vn -0.9937 -0.1117 0.0000
vn 0.0033 -1.0000 -0.0000
vn -0.9186 -0.3952 0.0000
vn -0.7597 -0.6502 0.0000
vn -0.5506 -0.8347 0.0000
vn -0.3348 -0.9423 0.0000
vn 0.9817 -0.1905 0.0058
vn 0.4137 -0.9104 -0.0044
vn 0.1533 -0.9882 -0.0000
vn 0.8008 -0.5989 0.0060
vn -0.0138 -0.9999 -0.0000
vn 0.6105 0.7920 0.0042
vn 0.0987 -0.9951 -0.0000
vn 0.5317 -0.8469 0.0053
vn 0.2870 0.9579 0.0038
vn -0.6455 0.7638 -0.0029
vn 0.3053 -0.9523 -0.0044
vn 0.1955 -0.9807 -0.0000
vn -0.1314 0.9913 -0.0042
vn -0.3567 0.9342 0.0042
vn -0.1453 0.9894 0.0036
vn 0.8609 0.5088 -0.0039
vn 0.0229 0.9997 0.0000
vn -0.8654 0.5011 -0.0056
vn -0.9845 0.1751 0.0000
vn 0.9863 -0.1647 0.0000
vn 0.4254 -0.9050 -0.0000
vn 0.8231 -0.5678 -0.0066
vn 0.5851 0.8110 -0.0040
vn 0.5557 -0.8314 -0.0057
vn 0.2561 0.9666 -0.0039
usemtl None
s off
f 7/1/1 9/2/1 2/3/1
f 20/4/1 18/5/1 15/6/1
f 22/7/1 21/8/1 33/9/1
f 28/10/1 27/11/1 29/12/1
f 23/13/1 32/14/1 31/15/1
f 9/2/1 11/16/1 12/17/1
f 39/18/2 38/19/2 35/20/2
f 40/21/2 39/18/2 35/20/2
f 41/22/2 40/21/2 42/23/2
f 34/24/2 41/22/2 42/23/2
f 37/25/2 34/24/2 42/23/2
f 43/26/2 37/25/2 42/23/2
f 36/27/2 50/28/2 46/29/2
f 51/30/2 47/31/2 48/32/2
f 61/33/2 59/34/2 60/35/2
f 57/36/2 58/37/2 62/38/2
f 55/39/2 56/40/2 63/41/2
f 45/42/2 44/43/2 36/27/2
f 3/44/3 18/5/3 36/27/3
f 10/45/4 4/46/4 37/25/4
f 6/47/1 2/3/1 5/48/1
f 7/1/1 2/3/1 6/47/1
f 8/49/1 9/2/1 7/1/1
f 1/50/1 9/2/1 8/49/1
f 4/46/1 9/2/1 1/50/1
f 10/45/1 9/2/1 4/46/1
f 11/16/1 9/2/1 10/45/1
f 19/51/1 18/5/1 3/44/1
f 14/52/1 3/44/1 13/53/1
f 15/6/1 33/9/1 21/8/1
f 18/5/1 19/51/1 16/54/1
f 18/5/1 16/54/1 15/6/1
f 17/55/1 33/9/1 28/10/1
f 33/9/1 17/55/1 22/7/1
f 30/56/1 29/12/1 27/11/1
f 31/15/1 30/56/1 25/57/1
f 25/57/1 30/56/1 26/58/1
f 42/23/2 36/27/2 44/43/2
f 23/13/1 31/15/1 24/59/1
f 13/53/1 3/44/1 12/17/1
f 40/21/2 35/20/2 42/23/2
f 50/28/2 36/27/2 51/30/2
f 36/27/2 46/29/2 45/42/2
f 47/31/2 52/60/2 53/61/2
f 52/60/2 47/31/2 51/30/2
f 49/62/2 61/33/2 60/35/2
f 54/63/2 65/64/2 53/61/2
f 49/62/2 65/64/2 54/63/2
f 59/34/2 61/33/2 62/38/2
f 57/36/2 62/38/2 63/41/2
f 40/21/5 41/22/5 8/49/5
f 55/39/2 63/41/2 64/65/2
f 34/24/6 37/25/6 4/46/6
f 64/65/7 63/41/7 31/15/7
f 52/60/8 51/30/8 18/5/8
f 8/49/9 41/22/9 34/24/9
f 36/27/10 42/23/10 9/2/10
f 53/61/11 52/60/11 20/4/11
f 61/33/12 49/62/12 17/55/12
f 54/63/13 53/61/13 21/8/13
f 48/32/14 47/31/14 15/6/14
f 19/51/15 50/28/15 48/32/15
f 14/52/16 46/29/16 50/28/16
f 42/23/17 35/20/17 2/3/17
f 17/55/18 49/62/18 54/63/18
f 55/39/19 64/65/19 32/14/19
f 56/40/20 55/39/20 23/13/20
f 25/57/21 57/36/21 56/40/21
f 47/31/22 65/64/22 33/9/22
f 26/58/23 58/37/23 57/36/23
f 27/11/24 59/34/24 58/37/24
f 28/10/25 60/35/25 59/34/25
f 65/64/26 60/35/26 28/10/26
f 35/20/27 38/19/27 5/48/27
f 10/45/28 37/25/28 43/26/28
f 43/26/29 44/43/29 12/17/29
f 38/19/30 39/18/30 6/47/30
f 44/43/31 45/42/31 13/53/31
f 62/38/32 61/33/32 29/12/32
f 13/53/33 45/42/33 46/29/33
f 39/18/34 40/21/34 7/1/34
f 63/41/35 62/38/35 30/56/35
f 18/5/36 51/30/36 36/27/36
f 9/2/1 12/17/1 3/44/1
f 19/51/1 3/44/1 14/52/1
f 15/6/1 21/8/1 20/4/1
f 17/55/1 28/10/1 29/12/1
f 30/56/1 27/11/1 26/58/1
f 31/15/1 25/57/1 24/59/1
f 42/23/2 44/43/2 43/26/2
f 50/28/2 51/30/2 48/32/2
f 47/31/2 53/61/2 65/64/2
f 49/62/2 60/35/2 65/64/2
f 59/34/2 62/38/2 58/37/2
f 57/36/2 63/41/2 56/40/2
f 40/21/37 8/49/37 7/1/37
f 34/24/38 4/46/38 1/50/38
f 64/65/39 31/15/39 32/14/39
f 52/60/40 18/5/40 20/4/40
f 8/49/9 34/24/9 1/50/9
f 36/27/10 9/2/10 3/44/10
f 53/61/41 20/4/41 21/8/41
f 61/33/42 17/55/42 29/12/42
f 54/63/43 21/8/43 22/7/43
f 48/32/14 15/6/14 16/54/14
f 19/51/15 48/32/15 16/54/15
f 14/52/16 50/28/16 19/51/16
f 42/23/17 2/3/17 9/2/17
f 17/55/18 54/63/18 22/7/18
f 55/39/44 32/14/44 23/13/44
f 56/40/45 23/13/45 24/59/45
f 25/57/21 56/40/21 24/59/21
f 47/31/22 33/9/22 15/6/22
f 26/58/23 57/36/23 25/57/23
f 27/11/24 58/37/24 26/58/24
f 28/10/25 59/34/25 27/11/25
f 65/64/26 28/10/26 33/9/26
f 35/20/46 5/48/46 2/3/46
f 10/45/47 43/26/47 11/16/47
f 43/26/29 12/17/29 11/16/29
f 38/19/48 6/47/48 5/48/48
f 44/43/31 13/53/31 12/17/31
f 62/38/49 29/12/49 30/56/49
f 13/53/33 46/29/33 14/52/33
f 39/18/50 7/1/50 6/47/50
f 63/41/51 30/56/51 31/15/51
