# Blender v3.0.1 OBJ File: ''
# www.blender.org
mtllib bind.mtl
o Bind1_Cylinder.002
v 0.005181 0.111682 -0.199979
v 0.009455 0.113233 0.200021
v 0.034106 0.106277 -0.199979
v 0.060646 0.093570 -0.199979
v 0.045778 0.104625 0.200021
v 0.082993 0.074427 -0.199979
v 0.076077 0.084726 0.200021
v 0.096544 0.055377 -0.199979
v 0.095220 0.062379 0.200021
v 0.105424 0.036596 -0.199979
v 0.107927 0.035839 0.200021
v 0.111500 0.007805 -0.199979
v 0.113332 0.006914 0.200021
v 0.109916 -0.021578 -0.199979
v 0.112315 -0.013835 0.200021
v 0.103052 -0.043925 -0.199979
v 0.107086 -0.036620 0.200021
v 0.093559 -0.062403 -0.199979
v 0.098205 -0.055401 0.200021
v 0.074415 -0.084750 -0.199979
v 0.084655 -0.074451 0.200021
v 0.055366 -0.098301 -0.199979
v 0.062308 -0.093594 0.200021
v 0.030186 -0.109635 -0.199979
v 0.028251 -0.108877 0.200021
v -0.006950 -0.113428 -0.199979
v -0.007900 -0.111535 0.200021
v -0.035874 -0.108023 -0.199979
v -0.036692 -0.105460 0.200021
v -0.062415 -0.095316 -0.199979
v -0.062930 -0.092140 0.200021
v -0.084762 -0.076173 -0.199979
v -0.084826 -0.072483 0.200021
v -0.101393 -0.051898 -0.199979
v -0.100889 -0.047828 0.200021
v -0.111174 -0.024146 -0.199979
v -0.110023 -0.019856 0.200021
v -0.113439 0.005192 -0.199979
v -0.111607 0.009527 0.200021
v -0.108034 0.034117 -0.199979
v -0.105531 0.038318 0.200021
v -0.095327 0.060657 -0.199979
v -0.092211 0.064556 0.200021
v -0.076184 0.083004 -0.199979
v -0.072554 0.086452 0.200021
v -0.051909 0.099635 -0.199979
v -0.047899 0.102515 0.200021
v -0.024157 0.109417 -0.199979
v -0.019928 0.111649 0.200021
vt 0.934897 1.000000
vt 0.908103 0.500000
vt 0.949770 0.500000
vt 0.883564 1.000000
vt 0.866437 0.500000
vt 0.841897 1.000000
vt 0.833333 0.500000
vt 0.696064 1.000000
vt 0.687500 0.500000
vt 0.720603 0.500000
vt 0.633564 1.000000
vt 0.616437 0.500000
vt 0.658103 0.500000
vt 0.591897 1.000000
vt 0.583334 0.500000
vt 0.800230 1.000000
vt 0.803937 0.500000
vt 0.762270 0.500000
vt 0.758564 1.000000
vt 0.729167 1.000000
vt 0.666667 1.000000
vt 0.539064 1.000000
vt 0.544328 0.500000
vt 0.491437 0.500000
vt 0.487731 1.000000
vt 0.987730 1.000000
vt 0.449770 0.500000
vt 0.446064 1.000000
vt 0.408104 0.500000
vt 0.404397 1.000000
vt 0.366437 0.500000
vt 0.362731 1.000000
vt 0.324770 0.500000
vt 0.321064 1.000000
vt 0.283104 0.500000
vt 0.279397 1.000000
vt 0.241437 0.500000
vt 0.237731 1.000000
vt 0.199770 0.500000
vt 0.196064 1.000000
vt 0.158103 0.500000
vt 0.154397 1.000000
vt 0.116437 0.500000
vt 0.112731 1.000000
vt 0.074770 0.500000
vt 0.071064 1.000000
vt 0.033103 0.500000
vt 0.029397 1.000000
vt 0.268450 0.488791
vt 0.487947 0.218674
vt 0.410004 0.428214
vt 0.000000 0.500000
vt 0.000000 1.000000
vt 0.971731 0.158156
vt 0.870000 0.042154
vt 0.957846 0.370000
vt 0.991436 0.500000
vt 0.206017 0.485429
vt 0.146582 0.466024
vt 0.094195 0.431896
vt 0.052426 0.385373
vt 0.024121 0.329625
vt 0.011209 0.268450
vt 0.457846 0.130000
vt 0.014571 0.206017
vt 0.033976 0.146582
vt 0.068104 0.094195
vt 0.114627 0.052426
vt 0.170376 0.024121
vt 0.231550 0.011209
vt 0.307999 0.018424
vt 0.380730 0.049323
vt 0.428214 0.089996
vt 0.475879 0.170375
vt 0.489156 0.262877
vt 0.477674 0.324336
vt 0.450677 0.380729
vt 0.344961 0.469029
vt 0.737123 0.010844
vt 0.675664 0.022326
vt 0.619270 0.049323
vt 0.571786 0.089996
vt 0.536446 0.141574
vt 0.515660 0.200540
vt 0.510844 0.262877
vt 0.522326 0.324336
vt 0.549323 0.380730
vt 0.589996 0.428214
vt 0.641574 0.463554
vt 0.700540 0.484340
vt 0.762877 0.489156
vt 0.824336 0.477674
vt 0.880730 0.450677
vt 0.928214 0.410004
vt 0.975879 0.329624
vt 0.988791 0.268450
vt 0.985429 0.206017
vt 0.950677 0.119270
vt 0.910004 0.071786
vt 0.815605 0.020618
vn 0.4318 0.9019 -0.0089
vn 0.6505 0.7594 -0.0083
vn 0.8149 0.5796 -0.0075
vn 0.9559 -0.2936 -0.0043
vn 0.7594 -0.6506 -0.0027
vn 0.5796 -0.8149 -0.0005
vn 0.9040 0.4275 -0.0048
vn 0.5489 0.8359 -0.0027
vn 0.7594 0.6506 -0.0036
vn 0.9830 0.1837 -0.0041
vn 0.9985 -0.0538 -0.0049
vn 0.8895 -0.4570 -0.0023
vn 0.9747 -0.2237 -0.0015
vn 0.4105 -0.9119 0.0037
vn 0.8149 -0.5796 0.0007
vn 0.6506 -0.7594 0.0029
vn 0.0733 -0.9973 0.0049
vn 0.2306 0.9730 -0.0027
vn -0.2065 -0.9784 0.0058
vn -0.4527 -0.8917 0.0065
vn -0.6680 -0.7441 0.0068
vn -0.8378 -0.5459 0.0066
vn -0.9506 -0.3104 0.0061
vn -0.9985 -0.0538 0.0052
vn -0.9784 0.2065 0.0040
vn -0.8917 0.4527 0.0025
vn -0.7441 0.6680 0.0010
vn -0.5459 0.8379 -0.0006
vn -0.3104 0.9506 -0.0020
vn 0.0000 0.0000 1.0000
vn -0.0538 0.9985 -0.0033
vn 0.0000 0.0000 -1.0000
vn 0.9019 0.4318 -0.0046
vn 0.9784 0.2065 -0.0057
vn 0.9988 -0.0490 -0.0047
vn 0.9040 -0.4275 -0.0013
vn 0.4094 -0.9123 0.0036
vn 0.1016 -0.9948 0.0024
vn 0.1837 0.9830 -0.0058
vn -0.1837 -0.9830 0.0042
vn -0.4318 -0.9019 0.0049
vn -0.6506 -0.7594 0.0052
vn -0.8250 -0.5652 0.0051
vn -0.9431 -0.3324 0.0046
vn -0.9970 -0.0770 0.0037
vn -0.9830 0.1837 0.0025
vn -0.9019 0.4318 0.0011
vn -0.7594 0.6506 -0.0004
vn -0.5652 0.8250 -0.0020
vn -0.3324 0.9431 -0.0035
vn -0.0770 0.9970 -0.0048
usemtl None
s off
f 5/1/1 4/2/1 3/3/1
f 7/4/2 6/5/2 4/2/2
f 9/6/3 8/7/3 6/5/3
f 17/8/4 16/9/4 14/10/4
f 21/11/5 20/12/5 18/13/5
f 23/14/6 22/15/6 20/12/6
f 8/7/7 11/16/7 10/17/7
f 5/1/8 7/4/8 4/2/8
f 7/4/9 9/6/9 6/5/9
f 12/18/10 11/16/10 13/19/10
f 12/18/11 15/20/11 14/10/11
f 16/9/12 19/21/12 18/13/12
f 15/20/13 17/8/13 14/10/13
f 22/15/14 25/22/14 24/23/14
f 19/21/15 21/11/15 18/13/15
f 21/11/16 23/14/16 20/12/16
f 26/24/17 25/22/17 27/25/17
f 3/3/18 2/26/18 5/1/18
f 28/27/19 27/25/19 29/28/19
f 30/29/20 29/28/20 31/30/20
f 32/31/21 31/30/21 33/32/21
f 34/33/22 33/32/22 35/34/22
f 36/35/23 35/34/23 37/36/23
f 38/37/24 37/36/24 39/38/24
f 40/39/25 39/38/25 41/40/25
f 42/41/26 41/40/26 43/42/26
f 44/43/27 43/42/27 45/44/27
f 46/45/28 45/44/28 47/46/28
f 48/47/29 47/46/29 49/48/29
f 2/49/30 15/50/30 7/51/30
f 1/52/31 49/48/31 2/53/31
f 16/54/32 22/55/32 8/56/32
f 8/7/33 9/6/33 11/16/33
f 12/18/34 10/17/34 11/16/34
f 12/18/35 13/19/35 15/20/35
f 16/9/36 17/8/36 19/21/36
f 22/15/37 23/14/37 25/22/37
f 26/24/38 24/23/38 25/22/38
f 3/3/39 1/57/39 2/26/39
f 28/27/40 26/24/40 27/25/40
f 30/29/41 28/27/41 29/28/41
f 32/31/42 30/29/42 31/30/42
f 34/33/43 32/31/43 33/32/43
f 36/35/44 34/33/44 35/34/44
f 38/37/45 36/35/45 37/36/45
f 40/39/46 38/37/46 39/38/46
f 42/41/47 40/39/47 41/40/47
f 44/43/48 42/41/48 43/42/48
f 46/45/49 44/43/49 45/44/49
f 48/47/50 46/45/50 47/46/50
f 2/49/30 49/58/30 15/50/30
f 49/58/30 47/59/30 15/50/30
f 47/59/30 45/60/30 15/50/30
f 45/60/30 43/61/30 15/50/30
f 43/61/30 41/62/30 15/50/30
f 41/62/30 39/63/30 19/64/30
f 39/63/30 37/65/30 19/64/30
f 37/65/30 35/66/30 19/64/30
f 35/66/30 33/67/30 19/64/30
f 33/67/30 31/68/30 19/64/30
f 31/68/30 29/69/30 19/64/30
f 29/69/30 27/70/30 19/64/30
f 27/70/30 25/71/30 23/72/30
f 23/72/30 21/73/30 19/64/30
f 19/64/30 17/74/30 15/50/30
f 15/50/30 13/75/30 11/76/30
f 11/76/30 9/77/30 15/50/30
f 9/77/30 7/51/30 15/50/30
f 7/51/30 5/78/30 2/49/30
f 41/62/30 19/64/30 15/50/30
f 27/70/30 23/72/30 19/64/30
f 1/52/51 48/47/51 49/48/51
f 26/79/32 28/80/32 22/55/32
f 28/80/32 30/81/32 22/55/32
f 30/81/32 32/82/32 22/55/32
f 32/82/32 34/83/32 22/55/32
f 34/83/32 36/84/32 22/55/32
f 36/84/32 38/85/32 22/55/32
f 38/85/32 40/86/32 22/55/32
f 40/86/32 42/87/32 8/56/32
f 42/87/32 44/88/32 8/56/32
f 44/88/32 46/89/32 8/56/32
f 46/89/32 48/90/32 8/56/32
f 48/90/32 1/91/32 8/56/32
f 1/91/32 3/92/32 8/56/32
f 3/92/32 4/93/32 8/56/32
f 4/93/32 6/94/32 8/56/32
f 8/56/32 10/95/32 12/96/32
f 12/96/32 14/97/32 16/54/32
f 16/54/32 18/98/32 20/99/32
f 20/99/32 22/55/32 16/54/32
f 22/55/32 24/100/32 26/79/32
f 40/86/32 8/56/32 22/55/32
f 8/56/32 12/96/32 16/54/32
